<svg xmlns="http://www.w3.org/2000/svg" width="40" height="40" viewBox="0 0 40 40">
    <g fill="white" fill-rule="nonzero">
        <path d="M10.65 2L2 10.65v18.7L10.65 38h18.7L38 29.35v-18.7L29.35 2h-18.7zm-.828-2h20.356L40 9.822v20.356L30.178 40H9.822L0 30.178V9.822L9.822 0z"/>
        <path d="M9.208 14.46v11.08l5.252 5.252H25.54l5.253-5.253V14.461l-5.253-5.253H14.46l-5.252 5.253zm5.045-6.252h11.493a.5.5 0 0 1 .354.147l5.545 5.545a.5.5 0 0 1 .147.354v11.492a.5.5 0 0 1-.147.354L26.1 31.645a.5.5 0 0 1-.354.147H14.253a.5.5 0 0 1-.354-.147L8.354 26.1a.5.5 0 0 1-.146-.354V14.254a.5.5 0 0 1 .146-.354L13.9 8.355a.5.5 0 0 1 .354-.147zm5.3 12.019l-9.668-19c-.302-.594.59-1.048.892-.454l9.668 19c.303.595-.589 1.048-.891.454zm0-.454l9.67-19c.302-.594 1.193-.14.891.454l-9.669 19c-.302.594-1.193.14-.891-.454zm.22-.218l19-9.67c.594-.302 1.048.59.453.891l-19 9.67c-.594.302-1.047-.59-.453-.891zm.453 0l19 9.669c.595.302.141 1.193-.453.89l-19-9.668c-.595-.303-.141-1.194.453-.891zm.22.218l9.668 19c.302.594-.589 1.048-.891.454l-9.67-19c-.301-.594.59-1.048.892-.454zm0 .454l-9.67 19c-.302.594-1.193.14-.89-.454l9.668-19c.302-.594 1.194-.14.891.454zm-.22.219l-19 9.669c-.593.302-1.047-.59-.453-.891l19-9.67c.594-.302 1.047.59.453.892zm-.453 0l-19-9.67c-.594-.302-.14-1.193.454-.89l19 9.669c.593.302.14 1.193-.454.89zM6.465 13.065v13.87l6.6 6.6h13.87l6.6-6.6v-13.87l-6.6-6.6h-13.87l-6.6 6.6zm6.393-7.6h14.284a.5.5 0 0 1 .353.147l6.893 6.892a.5.5 0 0 1 .146.354v14.284a.5.5 0 0 1-.146.354l-6.893 6.892a.5.5 0 0 1-.353.147H12.858a.5.5 0 0 1-.354-.147l-6.893-6.892a.5.5 0 0 1-.146-.354V12.858a.5.5 0 0 1 .146-.354l6.893-6.892a.5.5 0 0 1 .354-.147z"/>
    </g>
</svg>
