<svg xmlns="http://www.w3.org/2000/svg" width="82" height="82" viewBox="0 0 82 82">
    <g fill="none" fill-rule="evenodd">
        <path d="M0 0h82v82H0z"/>
        <path fill="#627FE7" d="M70.819 32.591a.676.676 0 0 1-.033.955 28454.847 28454.847 0 0 1-7.821 7.844l-3.123-1.116.327-.328 6.964-6.986L58.288 23H23.712l-8.846 9.96L41 59.174l7.88-7.906L50 54.395l-8.306 8.331A.974.974 0 0 1 41 63a.983.983 0 0 1-.696-.274l-29.09-29.18a.675.675 0 0 1-.033-.955L22.09 20.306a.98.98 0 0 1 .729-.306h36.363c.285 0 .557.113.727.306l10.91 12.285zM60.624 43.74l9.324 3.334-6.81 4.407 4.77 4.771a2.163 2.163 0 1 1-3.058 3.06l-4.77-4.772-4.407 6.81-3.329-9.306-1.117-3.127-3.5-9.789 9.775 3.495 3.122 1.117z"/>
    </g>
</svg>
