<svg width="24" height="24" viewBox="0 0 24 24" xmlns="http://www.w3.org/2000/svg"><title>1B88EA74-490F-46F7-A65A-F61BAA23AEEA</title><path d="M19.984 14.985c.561 0 1.016.451 1.016 1.008 0 .556-.455 1.007-1.016 1.007H9.04c-.544 0-1.145-.421-1.327-.94L3.842 5.015H2.016C1.455 5.015 1 4.564 1 4.007 1 3.451 1.455 3 2.016 3h3.272l3.871 11.045c.18.514.78.94 1.336.94h9.489zM18 22a2 2 0 1 1 0-4 2 2 0 0 1 0 4zm-7 0a2 2 0 1 1 0-4 2 2 0 0 1 0 4zM21.541 7c.34 0 .534.251.432.562l-1.788 5.877c-.1.31-.458.561-.798.561h-8.503c-.34 0-.698-.251-.799-.56L8.033 7.696C7.908 7.312 8.148 7 8.571 7h12.97z" fill="#3F51B5" fill-rule="evenodd"/></svg>