<svg xmlns="http://www.w3.org/2000/svg" width="30" height="30" viewBox="0 0 30 30">
    <path fill="#161616" fill-rule="evenodd" d="M23.984 17.985c.561 0 1.016.451 1.016 1.008 0 .556-.455 1.007-1.016 1.007H13.04c-.544 0-1.145-.421-1.327-.94L7.842 8.015H6.016C5.455 8.015 5 7.564 5 7.007 5 6.451 5.455 6 6.016 6h3.272l3.871 11.045c.18.514.78.94 1.336.94h9.489zM22 25a2 2 0 1 1 0-4 2 2 0 0 1 0 4zm-7 0a2 2 0 1 1 0-4 2 2 0 0 1 0 4zm10.541-15c.34 0 .534.251.432.562l-1.788 5.877c-.1.31-.458.561-.798.561h-8.503c-.34 0-.698-.251-.799-.56l-2.052-5.743c-.125-.385.115-.697.538-.697h12.97z"/>
</svg>
