<svg xmlns="http://www.w3.org/2000/svg" width="16" height="16" viewBox="0 0 16 16">
    <g fill="#627FE7" fill-rule="evenodd">
        <path fill-rule="nonzero" d="M8 12.502c.058 0 .113-.02.15-.057l6.29-6.109a.138.138 0 0 0 .006-.2l-2.358-2.572a.214.214 0 0 0-.157-.064H4.069a.214.214 0 0 0-.157.064L1.554 6.136a.138.138 0 0 0 .007.2l6.289 6.109a.216.216 0 0 0 .15.057zm0 1.5c-.445 0-.886-.168-1.21-.486L.5 7.408a1.627 1.627 0 0 1-.068-2.28l2.356-2.57A1.73 1.73 0 0 1 4.069 2h7.862c.476 0 .946.192 1.278.556l2.356 2.57c.608.66.572 1.663-.066 2.281L9.217 13.51c-.33.325-.772.493-1.217.493z"/>
        <path d="M8 14V3H3.429L0 6.301z"/>
    </g>
</svg>
