<svg xmlns="http://www.w3.org/2000/svg" width="40" height="40" viewBox="0 0 40 40">
    <g fill="#BCC5E2" fill-rule="nonzero">
        <path d="M15 1.905c-6.627 0-12 5.117-12 11.428v13.334c0 6.311 5.373 11.428 12 11.428h10c6.627 0 12-5.117 12-11.428V13.333c0-6.311-5.373-11.428-12-11.428H15zM15 0h10c7.732 0 14 5.97 14 13.333v13.334C39 34.03 32.732 40 25 40H15C7.268 40 1 34.03 1 26.667V13.333C1 5.97 7.268 0 15 0z"/>
        <path d="M10 1v38h1V1zM29 1v38h1V1z"/>
        <path d="M2 11h36v-1H2zM2 30h36v-1H2zM4 6h6.86V5H4zM30 6h5.86V5H30zM6 35h5.86v-1H6zM29 35h4.86v-1H29z"/>
        <path d="M33 6v6h1V6zM33 28v7h1v-7zM6 4v6h1V4zM5.964 11.533l.395-1.13h.282l.395 1.13-.536 1.533-.536-1.533zM3.52 20L6.5 26.934 9.35 20 6.5 13.066 3.521 20zM6.5 10l3.924 10L6.5 30 2.448 20 6.5 10z"/>
        <path d="M30.528 20l2.972 6.241L37 20l-3.5-6.241L30.528 20zm2.972-9l4.573 9-4.573 9-4.045-9 4.045-9zM28.832 33.947l.74.35v.406l-.74.35-1.168-.553 1.168-.553zM20.5 30.66L13.336 34.5l7.164 2.908 7.164-2.908-7.164-3.84zM30 34.5l-9.5 4.015L11 34.5l9.5-4.946L30 34.5zM28.77 4.947l.78.35v.406l-.78.35-1.229-.553 1.23-.553zM20 1.747L12.459 5.5 20 9.59l7.541-4.09L20 1.746zM30 5.5l-10 5.196L10 5.5 20 .64 30 5.5zM6 29v5h1v-5z"/>
    </g>
</svg>
