<svg width="14" height="11" viewBox="0 0 14 11" xmlns="http://www.w3.org/2000/svg"><title>34BB79C2-316C-4790-BD2A-00BFC1D669B2</title><g fill-rule="nonzero" fill="#CCC"><path d="M1.235 1l4.941 4.5c.225.216.523.518.824.5.3.018.599-.283.824-.5l4.94-4.5c.398-.38.505-1 0-1H1.236c-.504 0-.396.62 0 1z"/><path d="M13.176 2.057L7.824 7.052c-.203.185-.56.452-.824.448-.265.004-.62-.264-.824-.448L.824 2.057C.42 1.687 0 1.887 0 2.5V10c0 .613.319 1 .824 1h12.352c.505 0 .824-.387.824-1V2.5c0-.613-.421-.813-.824-.443z"/></g></svg>