<svg xmlns="http://www.w3.org/2000/svg" width="40" height="40" viewBox="0 0 40 40">
    <g fill="#BCC5E2" fill-rule="nonzero">
        <path d="M13.222 2L7 8.511v22.977L13.222 38h13.556L33 31.488V8.511L26.778 2H13.222zm-.856-2h15.267L35 7.71v24.58L27.633 40H12.366L5 32.29V7.71L12.366 0z"/>
        <path d="M15.234 6.593l-.157.063-2.213 2.378-2.23 2.395c-.054 8.08-.054 8.236-.054 16.222a166590.188 166590.188 0 0 1 4.556 4.896h9.593a176936.717 176936.717 0 0 0 4.556-4.896V11.488a44645.265 44645.265 0 0 0-4.556-4.895h-9.495zm-.307-.975h10.01a.48.48 0 0 1 .353.154 42052.17 42052.17 0 0 0 4.83 5.19c.084.09.13.21.13.334v16.548a.49.49 0 0 1-.13.334l-2.415 2.595-2.415 2.595a.48.48 0 0 1-.352.154h-10.01a.48.48 0 0 1-.353-.154 35696.068 35696.068 0 0 1-4.83-5.19.49.49 0 0 1-.131-.334V11.296a.49.49 0 0 1 .13-.334l4.831-5.19a.48.48 0 0 1 .352-.154zm1.111 3.743l-3.66 3.934V26.39l3.66 3.934h7.737l3.661-3.934V13.295l-3.66-3.934h-7.738zm-.209-.974h8.155a.48.48 0 0 1 .352.154l3.935 4.228c.084.09.131.21.131.333v13.481a.49.49 0 0 1-.13.333l-3.936 4.229a.48.48 0 0 1-.352.154H15.83a.48.48 0 0 1-.352-.154l-3.935-4.229a.49.49 0 0 1-.13-.333v-13.48a.49.49 0 0 1 .13-.334l3.935-4.228a.48.48 0 0 1 .352-.154zm-.446.674l-3.036-7.383c-.246-.6.646-.973.892-.373l3.036 7.382c.247.6-.645.973-.892.374zm8.16-.386l3.277-7.383c.263-.592 1.144-.194.881.398l-3.276 7.383c-.263.593-1.145.195-.882-.398zm4.069 4.052l5.411-4.51c.496-.414 1.112.337.615.751l-5.411 4.51c-.497.413-1.112-.338-.615-.751zm.63 13.494l5.59 5.063c.478.434-.167 1.16-.646.725l-5.59-5.063c-.478-.434.167-1.16.646-.725zm-3.814 4.398l3.276 7.698c.254.596-.633.98-.887.384l-3.277-7.697c-.254-.597.634-.981.888-.385zm-8.15.372l-3.036 7.698c-.238.603-1.135.243-.897-.36l3.036-7.698c.238-.603 1.135-.243.897.36zm-4.055-4.051L6.82 32.004c-.472.442-1.129-.272-.657-.714l5.403-5.064c.471-.442 1.129.272.657.714zm-.655-13.48L6.603 8.858c-.474-.439.18-1.156.653-.717l4.965 4.604c.474.44-.18 1.156-.653.717z"/>
    </g>
</svg>
