<svg xmlns="http://www.w3.org/2000/svg" width="24" height="24" viewBox="0 0 24 24">
    <g fill="#BCC5E2" fill-rule="nonzero">
        <path d="M12 3.69c-1.286-1.548-5.914-2.49-8.1-.807C1.716 4.566-1.498 13.316 12 21.999c13.499-8.683 10.285-17.433 8.1-19.116-2.186-1.683-6.814-.74-8.1.808zm0-2.49c2.62-1.507 6.917-1.716 9.241.074 2.032 1.564 3.234 5.169 2.58 8.901-.827 4.719-4.336 9.361-10.812 13.527-.618.397-1.4.397-2.018 0C4.515 19.536 1.006 14.894.179 10.175c-.654-3.732.548-7.337 2.58-8.901C5.083-.516 9.38-.307 12 1.199z"/>
        <path d="M5.885 1.666L.628 7.526a.5.5 0 1 0 .744.669L6.63 2.334a.5.5 0 0 0-.744-.668zm6.351 2.974L6.494 1.56a.5.5 0 1 0-.473.88l5.742 3.082a.5.5 0 1 0 .473-.882zM7.911 2.752L6.578 4.236a.5.5 0 0 0 .744.668l1.333-1.483a.5.5 0 1 0-.744-.669zM.634 8.202l3.776 4.044a.5.5 0 0 0 .73-.682L1.367 7.52a.5.5 0 1 0-.732.683zm4.984 8.524l-.344-4.856a.5.5 0 0 0-.998.07l.345 4.857a.5.5 0 0 0 .997-.07zm6.819 5.031l-2.315-4.172a.5.5 0 0 0-.874.485l2.314 4.173a.5.5 0 1 0 .875-.486zm-7.431-4.509l4.565 1.066a.5.5 0 1 0 .228-.973l-4.566-1.066a.5.5 0 0 0-.227.973zM4.002 4.114l1.134 4.024a.5.5 0 0 0 .962-.271L4.964 3.843a.5.5 0 0 0-.962.27zm1.262 7.897l.842-3.903a.5.5 0 1 0-.978-.211L4.286 11.8a.5.5 0 0 0 .978.21zm1.22-7.622L5.15 7.821a.5.5 0 0 0 .932.362l1.333-3.432a.5.5 0 0 0-.932-.362zm-2.118.075l2.467.592a.5.5 0 1 0 .233-.972L4.6 3.492a.5.5 0 0 0-.234.972zm.806 3.767l3.087 5.99a.5.5 0 0 0 .889-.458L6.06 7.773a.5.5 0 0 0-.889.458zm4.997 9.473l-.982-3.836a.5.5 0 1 0-.968.248l.982 3.836a.5.5 0 0 0 .968-.248zm-5.628-5.357l3.928 2.086a.5.5 0 1 0 .469-.883L5.01 11.464a.5.5 0 1 0-.47.883zm5.446 5.88l2.314-1.75a.5.5 0 0 0-.603-.798l-2.314 1.75a.5.5 0 1 0 .603.797zm-1.551-3.813l3.296 2.086a.5.5 0 0 0 .535-.845L8.97 13.57a.5.5 0 1 0-.534.845zM6.898 5.067l5.05.52a.5.5 0 1 0 .103-.995L7 4.072a.5.5 0 0 0-.103.995zm10.473-2.733l5.257 5.86a.5.5 0 0 0 .744-.667l-5.257-5.86a.5.5 0 0 0-.744.667zm-5.134 3.188l5.742-3.081a.5.5 0 1 0-.473-.882L11.764 4.64a.5.5 0 1 0 .473.882zm3.108-2.101l1.333 1.483a.5.5 0 1 0 .744-.668L16.09 2.752a.5.5 0 1 0-.744.669zm7.29 4.098l-3.776 4.045a.5.5 0 0 0 .731.682l3.776-4.044a.5.5 0 0 0-.732-.683zm-3.256 9.278l.344-4.856a.5.5 0 0 0-.997-.071l-.344 4.856a.5.5 0 0 0 .997.07zm-6.942 5.446l2.315-4.173a.5.5 0 1 0-.874-.485l-2.315 4.172a.5.5 0 1 0 .874.486zm6.33-5.968L14.2 17.34a.5.5 0 1 0 .228.973l4.565-1.066a.5.5 0 1 0-.227-.973zm.269-12.432l-1.134 4.023a.5.5 0 0 0 .962.272l1.134-4.024a.5.5 0 1 0-.962-.271zm.677 7.957l-.841-3.903a.5.5 0 0 0-.978.21l.842 3.904a.5.5 0 1 0 .977-.211zm-3.129-7.05l1.333 3.433a.5.5 0 0 0 .932-.362L17.516 4.39a.5.5 0 0 0-.932.362zM19.4 3.493l-2.466.592a.5.5 0 0 0 .233.972l2.467-.592a.5.5 0 0 0-.234-.972zm-1.462 4.281l-3.086 5.99a.5.5 0 0 0 .89.458l3.085-5.99a.5.5 0 1 0-.889-.458zM14.8 17.952l.982-3.836a.5.5 0 0 0-.969-.248l-.982 3.836a.5.5 0 0 0 .97.248zm4.191-6.488l-3.928 2.086a.5.5 0 0 0 .47.883l3.927-2.086a.5.5 0 0 0-.469-.883zm-4.374 5.965l-2.314-1.75a.5.5 0 0 0-.603.798l2.314 1.75a.5.5 0 1 0 .603-.798zm.413-3.86l-3.296 2.086a.5.5 0 0 0 .535.845l3.296-2.086a.5.5 0 1 0-.535-.845zM17 4.073l-5.05.52a.5.5 0 0 0 .102.994l5.05-.52A.5.5 0 1 0 17 4.073z"/>
    </g>
</svg>
