<svg xmlns="http://www.w3.org/2000/svg" width="40" height="40" viewBox="0 0 40 40">
    <g fill="none" fill-rule="evenodd" stroke="#BCC5E2">
        <path stroke-width="2" d="M20 37.823C31.425 30.669 37.363 23.06 38.714 15.68c.981-5.358-.757-10.349-3.243-12.182C31.897.865 23.254 2.003 20.755 4.884L20 5.755l-.756-.871C16.746 2.003 8.103.864 4.53 3.499 2.043 5.332.305 10.323 1.286 15.681 2.637 23.061 8.576 30.67 20 37.823z"/>
        <path stroke-linecap="round" stroke-linejoin="round" d="M10.603 3L2 12.963m18-4.725L10.602 3M5.538 4.509l2.161 1.854m6.218-1.516L11.736 7.37M2 12.963l6.178 6.876M4.41 22.188l3.767-2.349m.563 8.256l-.563-8.256m5.887 13.082l2.147-3.014M19.999 37l-3.787-7.093M8.74 28.095l7.47 1.812M7.7 6.363l1.856 6.84M8.178 19.84l1.377-6.635m2.18-5.835l-2.18 5.835M7.699 6.363l4.037 1.006m-2.181 5.835l5.05 10.182m1.607 6.52l-1.607-6.52m-6.427-3.547l6.427 3.547m1.607 6.52l3.787-2.974m-5.394-3.546L20 26.932M11.736 7.37l8.263.884m0-2.371v2.37M29.397 3L38 12.963M20 8.238L29.397 3m5.065 1.509l-2.161 1.854m-6.218-1.516l2.181 2.522M38 12.963l-6.178 6.876m3.767 2.349l-3.767-2.349m-.563 8.256l.563-8.256m-5.887 13.082l-2.147-3.014M20 37l3.788-7.093m7.471-1.812l-7.471 1.812M32.3 6.363l-1.856 6.84m1.377 6.636l-1.377-6.635m-2.18-5.835l2.18 5.835M32.3 6.363l-4.037 1.006m2.18 5.835l-5.05 10.182m-1.606 6.52l1.607-6.52m6.427-3.547l-6.427 3.547m-1.607 6.52L20 26.933m5.395-3.546L20 26.932M28.264 7.37L20 8.253m0-2.371v2.37"/>
    </g>
</svg>
