<?xml version="1.0" encoding="iso-8859-1"?>
<!-- Generator: Adobe Illustrator 19.2.0, SVG Export Plug-In . SVG Version: 6.00 Build 0)  -->
<svg version="1.1" id="Layer_1" xmlns="http://www.w3.org/2000/svg" xmlns:xlink="http://www.w3.org/1999/xlink" x="0px" y="0px"
	 viewBox="0 0 327.04 315.58" style="enable-background:new 0 0 327.04 315.58;" xml:space="preserve">
<path d="M327.039,63.881c0.02-5.376-1.713-9.295-5.553-12.957c-15.458-14.69-30.778-29.478-45.96-44.444
	c-4.746-4.667-9.925-6.538-16.639-6.479c-31.802,0.276-63.624,0.118-95.426,0.118c-31.802,0-63.624,0.158-95.426-0.118
	c-6.754-0.059-11.835,1.93-16.58,6.616C36.292,21.564,20.932,36.352,5.474,51.003C1.595,54.685,0,58.663,0,63.999
	c0.138,62.639,0.138,125.278,0,187.898c0,5.376,1.693,9.314,5.553,12.957c15.95,15.084,31.861,30.246,47.516,45.665
	c3.86,3.82,7.916,5.061,13.115,5.041c64.943-0.098,129.867-0.098,194.79,0.02c5.258,0,9.235-1.378,13.095-5.159
	c15.655-15.419,31.546-30.562,47.516-45.645c3.879-3.663,5.454-7.66,5.454-12.997C326.902,189.14,326.902,126.52,327.039,63.881z
	 M267.984,11.679c1.477-0.138,2.343,0.866,3.269,1.772c13.627,13.174,27.312,26.269,40.821,39.561
	c3.781,3.722,3.485,4.49-0.886,7.325c-1.378,0.886-2.934,1.497-4.253,2.422c-3.525,2.481-6.301,2.009-9.452-1.083
	c-9.551-9.373-19.377-18.471-29.104-27.687c-0.709-0.689-1.457-1.339-2.068-2.087c-2.028-2.501-6.439-3.86-6.183-7.168
	c0.354-4.529,3.84-8.152,6.321-11.973C266.763,12.289,267.452,12.033,267.984,11.679z M298.92,157.456h-0.473v74.73
	c0,1.969,0.098,3.958-0.099,5.908c-0.217,2.127-0.709,3.722-3.702,2.501c-8.999-3.682-10.515-5.612-10.515-15.123
	c-0.02-45.232-0.039-90.483,0.02-135.715c0.02-4.076-1.319-8.704,4.037-11.008c3.249-1.418,6.597-5.533,9.472-4.076
	c3.229,1.634,1.181,6.557,1.201,10.003C298.979,108.936,298.92,133.196,298.92,157.456z M27.962,157.397v-72.8
	c0-2.619-0.02-5.258,0.138-7.877c0.118-1.713,0.551-3.111,3.013-2.304c8.901,2.875,11.795,6.754,11.795,16.305
	c0.02,44.917,0.039,89.853-0.059,134.79c0,3.407,1.556,7.542-2.048,10.062c-3.446,2.402-7.443,6.616-11.047,5.277
	c-3.722-1.359-1.693-6.951-1.713-10.653C27.883,205.937,27.962,181.657,27.962,157.397z M279.464,228.878
	c0,4.608-1.221,8.093-4.628,11.283c-9.098,8.507-18.097,17.151-26.859,26.013c-3.19,3.229-6.794,3.426-10.771,3.426
	c-24.615-0.039-49.229-0.02-73.844-0.02c-23.965,0-47.929-0.217-71.875,0.138c-6.479,0.099-11.086-1.91-15.478-6.518
	c-7.699-8.074-15.891-15.674-24.024-23.295c-3.092-2.895-4.411-6.085-4.391-10.378c0.098-47.91,0.098-95.82,0.02-143.749
	c-0.02-3.879,1.122-6.853,3.958-9.55c9.55-8.999,19.042-18.057,28.336-27.312c2.954-2.954,6.282-3.052,9.925-3.033
	c15.438,0.039,30.857,0,46.275,0c32.826,0,65.652,0.118,98.458-0.098c6.262-0.039,11.145,1.241,15.655,6.065
	c7.601,8.133,15.891,15.655,24.103,23.197c3.663,3.367,5.179,7.01,5.159,12.051C279.327,134.358,279.346,181.618,279.464,228.878z
	 M275.25,69.572c-6.892-6.479-13.804-12.977-20.44-19.711c-7.128-7.207-7.699-4.726-1.477-15.241c1.89-3.19,2.934-4.135,4.116-4.273
	c0.63,0.355,1.595,0.65,2.264,1.28c11.579,11.027,23.138,22.114,34.697,33.18c2.009,1.93,2.599,3.702-0.413,5.218
	c-0.591,0.295-1.162,0.61-1.733,0.945C283.009,76.74,282.95,76.799,275.25,69.572z M249.71,31.547
	c-3.269,7.542-8.212,10.377-16.718,10.141c-23.236-0.63-46.512-0.217-69.768-0.217c-23.925,0-47.851,0.02-71.756-0.02
	c-3.84,0-8.054,0.807-10.338-3.702c-1.457-2.895-5.14-5.888-4.017-8.566c1.319-3.111,5.829-1.418,8.901-1.437
	c51.1-0.433,102.18-0.748,153.28-1.083c2.619-0.02,5.238,0.02,7.857,0.039C251.049,26.723,251.167,28.16,249.71,31.547z
	 M78.097,42.279c-0.236,2.442-1.89,3.702-3.269,5.021c-8.96,8.664-18.057,17.171-26.919,25.934c-2.54,2.54-4.785,2.895-7.621,0.945
	c-0.807-0.551-1.713-0.965-2.56-1.477c-8.743-5.159-8.625-3.879-1.497-10.988c9.511-9.491,19.121-18.904,28.73-28.317
	c5.002-4.884,5.061-4.844,8.861,1.398C75.36,37.317,76.738,39.916,78.097,42.279z M33.161,245.635
	c0.571-0.315,1.122-0.669,1.693-0.985c11.224-6.124,8.428-6.459,17.191,1.713c7.66,7.168,15.064,14.611,22.527,21.956
	c1.378,1.359,3.19,2.402,3.544,4.549c0.059,1.162-6.459,12.11-7.463,12.524c-1.556,0.67-2.383-0.512-3.289-1.359
	c-11.657-11.047-23.295-22.094-34.953-33.141C30.168,248.766,30.404,247.034,33.161,245.635z M76.187,287.086
	c1.969-3.761,4.037-7.483,6.38-11.027c1.713-2.599,4.726-1.871,7.266-1.871c16.383-0.059,32.787-0.039,49.17-0.039
	c32.137,0,64.274-0.039,96.391,0.039c3.446,0.02,7.503-1.221,9.787,2.757c1.93,3.328,6.203,6.735,4.844,10.141
	c-1.378,3.466-6.498,1.457-9.925,1.477c-25.895,0.158-51.789,0.079-77.703,0.079v0.473c-25.56,0-51.12,0-76.699-0.02
	c-2.619,0-5.238-0.02-7.857-0.177C76.876,288.859,75.675,288.051,76.187,287.086z M249.159,273.243
	c-0.315-0.65,0.847-2.402,1.693-3.229c9.551-9.354,19.239-18.569,28.73-27.982c2.343-2.343,4.391-2.225,6.872-0.689
	c1.674,1.024,3.308,2.127,5.081,2.954c4.076,1.949,3.17,4.155,0.532,6.597c-0.965,0.886-1.851,1.831-2.757,2.777
	c-9.354,9.55-18.727,19.081-28.021,28.671c-1.122,1.162-1.851,2.717-2.383,3.525c-1.871-0.512-2.737-0.492-2.954-0.847
	C253.589,281.14,251.207,277.28,249.159,273.243z M66.952,8.607c2.619-0.138,5.238-0.118,7.877-0.118
	c29.833-0.02,59.685-0.02,89.518,0c30.502,0,61.005-0.039,91.488,0.02c7.247,0,6.971,0,4.056,5.947
	c-3.131,6.36-7.601,8.526-14.769,8.507c-54.113-0.138-108.206,0.158-162.319,0.295c-10.003,0.02-14.257-2.973-17.289-11.973
	C65.002,9.768,65.14,8.685,66.952,8.607z M15.497,52.46c13.331-13.095,26.899-25.973,40.25-39.049
	c2.776-2.717,4.431-1.851,6.026,0.965c1.772,3.092,3.525,6.223,4.844,8.546c0.02,3.663-1.989,5.08-3.584,6.636
	C51.986,40.31,40.801,50.904,29.853,61.754c-3.111,3.092-5.947,3.663-9.472,1.103c-1.063-0.768-2.284-1.28-3.407-1.949
	C11.185,57.422,10.949,56.95,15.497,52.46z M9.57,252.134c-2.816-1.3-1.063-6.577-1.083-10.062
	c-0.099-28.199-0.059-56.377-0.059-84.576c0-28.848,0-57.697,0.02-86.545c0-9.413-0.098-9.098,7.798-5.14
	c5.396,2.678,7.306,6.203,7.286,12.248c-0.118,52.793,0.099,105.567,0.138,158.341c0,4.076,1.26,8.822-3.761,11.264
	C16.423,249.357,12.839,253.63,9.57,252.134z M59.272,304.139c-1.674,0.098-2.52-0.965-3.426-1.831
	c-13.922-13.39-27.785-26.82-41.786-40.132c-3.091-2.954-2.717-4.706,1.024-6.38c1.792-0.788,3.525-1.792,5.08-2.954
	c3.544-2.658,6.341-1.93,9.413,1.063c11.52,11.165,23.157,22.193,34.894,33.121c3.032,2.836,3.013,5.336,0.748,8.507
	C63.171,298.389,62.167,302.013,59.272,304.139z M261.269,305.695c-1.359,2.895-5.888,1.241-8.999,1.241
	c-29.479,0.098-58.957,0.059-88.455,0.059c-30.778,0-61.576,0.039-92.374-0.02c-7.384-0.02-6.991,0.059-3.663-6.794
	c3.052-6.262,7.542-7.857,14.158-7.818c32.432,0.276,64.864-0.551,97.277,0.374c22.921,0.63,45.823,0.473,68.744,0.788
	c3.564,0.059,7.365-0.433,9.373,3.663C258.729,300.103,262.49,303.115,261.269,305.695z M313.275,261.802
	c-14.119,13.587-28.258,27.174-42.337,40.821c-2.225,2.146-3.82,2.009-5.317-0.689c-1.083-2.009-2.225-3.997-3.505-5.888
	c-2.127-3.151-2.068-5.789,0.768-8.684c11.48-11.618,22.842-23.354,34.126-35.169c2.225-2.324,4.332-2.521,6.912-1.024
	c3.111,1.792,6.242,3.564,9.314,5.415c0.788,0.473,1.398,1.26,1.949,1.772C315.185,260.069,314.201,260.896,313.275,261.802z
	 M318.572,247.191c-0.02,6.479-0.276,6.676-5.592,3.682c-13.233-7.424-10.968-4.096-11.067-18.609
	c-0.02-5.573,0.335-11.146,0.374-16.718c0.374-45.567,0.689-91.133,1.044-136.7c0.059-8.093,4.982-14.001,12.839-15.675
	c1.752-0.374,2.343,0.433,2.363,1.989c0.02,2.304,0.059,4.588,0.059,6.892c0.02,28.533,0.02,57.066,0,85.6
	C318.592,187.506,318.631,217.338,318.572,247.191z"/>
<path d="M259.005,153.36c-0.768-2.107-3.367-1.477-5.238-1.556c-2.619-0.118-5.238-0.138-7.857-0.02
	c-1.93,0.098-4.962-0.177-5.553,0.847c-1.378,2.383,1.91,2.599,3.052,3.899c3.249,3.722,1.122,7.759-0.079,11.165
	c-5.848,16.679-12.17,33.181-18.333,49.741c-0.335,0.926-0.768,2.461-1.28,2.521c-1.497,0.157-1.89-1.418-2.265-2.521
	c-5.711-17.073-11.323-34.185-17.053-51.257c-1.516-4.509-1.359-8.349,3.013-11.205c0.788-0.512,1.95-1.241,1.378-2.245
	c-0.335-0.61-1.674-0.866-2.56-0.866c-7.227-0.079-14.434-0.098-21.641-0.039c-1.162,0.02-2.855-0.374-2.993,1.398
	c-0.059,0.63,1.083,1.477,1.812,2.048c7.64,5.789,9.078,8.349,6.636,15.34c-5.415,15.438-11.244,30.739-16.955,46.078
	c-0.315,0.827-0.945,1.969-1.654,2.166c-1.93,0.492-1.812-1.477-2.186-2.521c-3.722-10.476-7.345-20.991-10.988-31.507
	c-2.816-8.133-2.796-8.133,4.056-13.607c15.891-12.662,21.641-30.699,16.088-51.159c-5.829-21.543-21.858-32.511-42.711-37.532
	c-11.323-2.717-22.823-1.831-34.283-1.93c-7.857,0-15.734-0.039-23.591,0.039c-1.122,0-2.836-0.374-2.954,1.398
	c-0.02,0.551,1.201,1.497,2.028,1.772c6.518,2.146,7.66,7.069,7.601,13.193c-0.158,23.276-0.138,46.551-0.02,69.846
	c0.039,6.065-1.26,11.047-7.64,13.312c-0.886,0.315-2.087,0.985-1.615,2.068c0.276,0.571,1.654,0.926,2.54,0.906
	c19.633-0.374,39.324,1.359,58.937-1.024c7.857-0.965,7.995-1.044,10.574,6.4c5.277,15.143,10.358,30.365,15.596,45.508
	c1.004,2.895,0.709,7.581,4.726,7.424c2.973-0.118,3.092-4.549,4.076-7.168c6.833-18.431,13.489-36.902,20.302-55.314
	c0.492-1.319,0.669-3.446,2.501-3.387c0.689,0.02,1.497,1.989,1.89,3.19c6.262,18.609,12.386,37.276,18.766,55.846
	c0.906,2.599,0.729,7.089,4.076,7.148c3.072,0.059,3.308-4.175,4.293-6.833c7.837-21.169,15.635-42.377,23.531-63.525
	c1.95-5.199,3.997-10.397,8.468-14.178C256.839,156.078,259.93,155.96,259.005,153.36z M152.414,165.471
	c-0.669-0.532-1.044-1.693-1.162-2.619c-0.453-3.19,0.65-5.73,3.446-7.483c0.847-0.532,1.812-1.339,1.26-2.324
	c-0.354-0.63-1.536-1.122-2.363-1.142c-7.207-0.079-14.414-0.039-21.622-0.02c-0.925,0.02-2.028,0.138-2.264,1.241
	c-0.217,1.103,0.65,1.812,1.575,2.186c5.612,2.146,6.853,7.286,8.861,12.189c2.698,6.557,0.748,8.034-4.628,8.92
	c-8.999,1.516-18.097,3.072-27.332,1.103c-7.916-1.674-9.984-3.505-10.555-11.579c-0.354-4.884-0.118-9.826-0.118-14.729
	c-0.02-7.542,0-15.084,0-22.626c0-11.145-0.079-22.291,0.02-33.417c0.079-7.818,0.177-7.798,8.133-9.137
	c9.925-1.674,19.633-0.571,29.065,2.58c17.585,5.868,29.065,21.05,30.384,39.639c0.926,13.115-0.591,25.56-9.708,35.937
	C154.639,165.057,153.89,166.632,152.414,165.471z"/>
</svg>
