<svg xmlns="http://www.w3.org/2000/svg" xmlns:xlink="http://www.w3.org/1999/xlink" width="38" height="38" viewBox="0 0 38 38">
    <defs>
        <circle id="b" cx="16" cy="16" r="16"/>
        <filter id="a" width="200%" height="200%" x="-50%" y="-50%" filterUnits="objectBoundingBox">
            <feOffset dy="1" in="SourceAlpha" result="shadowOffsetOuter1"/>
            <feGaussianBlur in="shadowOffsetOuter1" result="shadowBlurOuter1" stdDeviation="1.5"/>
            <feColorMatrix in="shadowBlurOuter1" values="0 0 0 0 0 0 0 0 0 0 0 0 0 0 0 0 0 0 0.104789402 0"/>
        </filter>
    </defs>
    <g fill="none" fill-rule="evenodd">
        <g transform="translate(3 2)">
            <use fill="#000" filter="url(#a)" xlink:href="#b"/>
            <use fill="#00E1A6" xlink:href="#b"/>
        </g>
        <path fill="#FFF" d="M26.097 16.5c.304-.315.903-.13.903.278v6.261c0 .53-.503.961-1.123.961H12.123c-.62 0-1.123-.43-1.123-.96v-6.272c0-.408.596-.593.901-.28l2.537 2.6c.29.297.82.301 1.118.01l2.962-2.91a.715.715 0 0 1 .965 0l2.99 2.923c.298.291.831.285 1.12-.014l2.504-2.596zM19.5 14a1.5 1.5 0 1 1 0-3 1.5 1.5 0 0 1 0 3zm6.5 1a1 1 0 1 1 0-2 1 1 0 0 1 0 2zm-14 0a1 1 0 1 1 0-2 1 1 0 0 1 0 2z"/>
    </g>
</svg>
