<svg xmlns="http://www.w3.org/2000/svg" width="82" height="82" viewBox="0 0 82 82">
    <g fill="none" fill-rule="evenodd">
        <path d="M0 0h82v81.708H0z"/>
        <path fill="#627FE7" fill-rule="nonzero" d="M35.106 47.92c.17-.571.325-1.156.52-1.715.22-.658.402-.745 1.038-.422 1.09.547 2.233.845 3.44.994.78.087 1.545.012 2.26-.286 1.35-.56 1.557-2.05.415-2.958-.39-.31-.831-.534-1.285-.72-1.182-.498-2.415-.87-3.519-1.517-1.804-1.031-2.96-2.46-2.817-4.56.156-2.387 1.558-3.866 3.843-4.66.935-.324.948-.312.948-1.256v-.957c.013-.708.143-.833.883-.857.233-.013.454 0 .688 0 1.57 0 1.57 0 1.583 1.503 0 1.069 0 1.069 1.117 1.23.844.125 1.662.361 2.44.697.429.186.598.472.468.907-.195.646-.377 1.305-.597 1.95-.208.61-.403.697-1.013.411a7.993 7.993 0 0 0-3.869-.733c-.35.012-.7.062-1.038.199-1.169.484-1.363 1.727-.364 2.498.507.385 1.078.67 1.675.907 1.039.41 2.077.808 3.064 1.33 3.141 1.665 3.985 5.43 1.778 8.003-.805.932-1.843 1.553-3.05 1.876-.533.137-.766.41-.74.932.026.522 0 1.032 0 1.554 0 .46-.247.708-.727.72-.585.013-1.169.013-1.74 0-.506-.012-.753-.285-.753-.757 0-.373-.013-.758-.013-1.131-.013-.833-.039-.87-.87-.995-1.077-.161-2.129-.397-3.102-.857-.805-.373-.883-.56-.663-1.33zm25.06 12.647l1.282-1.277L64 61.832l-1.282 1.277C56.768 69.036 48.964 72 41.148 72c-7.37 0-14.738-2.641-20.538-7.911v3.484H17V58h9.609v3.596h-3.385c10.542 9.4 26.81 9.065 36.942-1.03zm1.212-46.136H65V24h-9.609v-3.6h3.385c-10.542-9.407-26.81-9.072-36.942 1.03l-1.282 1.28L18 20.164l1.27-1.266C25.22 12.966 33.024 10 40.84 10c7.369 0 14.738 2.644 20.538 7.918v-3.487z"/>
    </g>
</svg>
