<svg xmlns="http://www.w3.org/2000/svg" width="40" height="40" viewBox="0 0 40 40">
    <g fill="#BCC5E2" fill-rule="nonzero">
        <path d="M20 38c7.012 0 13-7.984 13-18S27.012 2 20 2 7 9.984 7 20s5.988 18 13 18zm0 2c-8.262 0-15-8.984-15-20S11.738 0 20 0s15 8.984 15 20-6.738 20-15 20z"/>
        <path d="M24.327 7.58l1.526-4.983a.5.5 0 1 0-.956-.292l-1.526 4.983a.5.5 0 1 0 .956.293zm5.22 7.684l3.676-2.059a.5.5 0 1 0-.49-.872l-3.675 2.058a.5.5 0 1 0 .488.873zM23.38 32.835l1.517 4.989a.5.5 0 0 0 .956-.291l-1.517-4.989a.5.5 0 0 0-.956.291zm-7.709-.286l-1.526 4.983a.5.5 0 0 0 .956.293l1.526-4.983a.5.5 0 0 0-.956-.293zm-5.22-7.684l-3.675 2.059a.5.5 0 1 0 .488.872l3.676-2.058a.5.5 0 1 0-.488-.873zm.487-10.46l-3.672-2.072a.5.5 0 1 0-.491.87l3.672 2.073a.5.5 0 0 0 .491-.871zm5.68-7.111l-1.516-4.989a.5.5 0 1 0-.957.291l1.517 4.989a.5.5 0 0 0 .957-.291zm6.802.397a.5.5 0 1 0 .858-.514L20.428.743a.5.5 0 0 0-.858 0l-3.859 6.439a.5.5 0 0 0 .858.514L20 1.973l3.42 5.718zm5.956-.515l-.597 7.624a.5.5 0 0 0 .997.078l.645-8.242a.5.5 0 0 0-.566-.535l-6.085.831-.178.06-13.146 7.413a.5.5 0 1 0 .492.87L24 7.91l5.376-.734zm-.504 17.77a.5.5 0 1 0 .737.676l4.76-5.193a.5.5 0 0 0 .003-.672l-4.726-5.268a.5.5 0 0 0-.745.668l4.424 4.93-4.453 4.86zm-5.04 7.176a.5.5 0 1 0-.148.99l6.07.914a.5.5 0 0 0 .573-.53l-.583-8.262a.5.5 0 0 0-.997.07l.539 7.64-5.453-.822zm-7.34.141a.5.5 0 1 0-.862.506l3.805 6.484a.5.5 0 0 0 .857.008l3.904-6.39a.5.5 0 0 0-.853-.52l-3.468 5.676-3.382-5.764zm-5.31-7.18a.5.5 0 0 0-.995-.084l-.703 8.233a.5.5 0 0 0 .56.539l6.09-.752a.5.5 0 1 0-.122-.992l-5.48.676.65-7.62zm-.021-10.145a.5.5 0 0 0-.73-.682l-4.796 5.131a.5.5 0 0 0-.01.672l4.689 5.328a.5.5 0 0 0 .75-.66l-4.39-4.988 4.487-4.8zm5.087-7.109a.5.5 0 0 0 .162-.987l-6.063-.993a.5.5 0 0 0-.58.525l.525 8.27a.5.5 0 1 0 .998-.064l-.485-7.642 5.443.891zm-.353.006l13.138 7.44a.5.5 0 1 0 .492-.87l-13.137-7.44a.5.5 0 1 0-.493.87zm7.498-.282l5.362 17.895a.5.5 0 0 0 .958-.287L24.351 7.266a.5.5 0 0 0-.958.287zm5.443 7.158l-5.582 17.772a.5.5 0 0 0 .954.3L29.79 15.01a.5.5 0 1 0-.954-.3zm.174 10.2l-13.226 7.142a.5.5 0 0 0 .475.88l13.226-7.142a.5.5 0 0 0-.475-.88zm-5.04 7.337l-13.053-7.71a.5.5 0 0 0-.508.862l13.053 7.709a.5.5 0 1 0 .508-.861zm-7.502.125L11.305 14.37a.5.5 0 1 0-.961.276l5.162 18.003a.5.5 0 0 0 .962-.276zm-5.363-7.269l5.779-17.655a.5.5 0 1 0-.95-.311l-5.78 17.655a.5.5 0 0 0 .951.311z"/>
    </g>
</svg>
