<svg width="24" height="24" viewBox="0 0 24 24" xmlns="http://www.w3.org/2000/svg"><title>66AAE52D-63E8-4190-A230-0D79B9CF69AD</title><path d="M12 20a8 8 0 1 1 0-16 8 8 0 0 1 0 16zm2.105-4.714c.324-.404.486-.898.486-1.482 0-.416-.094-.768-.282-1.056a2.326 2.326 0 0 0-.678-.69 9.708 9.708 0 0 0-1.008-.558c-.416-.2-.724-.376-.924-.528a.707.707 0 0 1-.3-.588c0-.552.312-.828.936-.828.248 0 .474.05.678.15.204.1.422.254.654.462l.828-.936c-.512-.552-1.1-.876-1.764-.972V7.048h-1.104v1.236c-.56.112-1 .36-1.32.744-.32.384-.48.864-.48 1.44 0 .376.088.7.264.972.176.272.39.492.642.66.252.168.578.356.978.564.448.232.778.434.99.606.212.172.318.39.318.654 0 .592-.344.888-1.032.888-.288 0-.572-.06-.852-.18a4.19 4.19 0 0 1-.888-.54l-.72 1.116c.272.248.596.45.972.606.376.156.752.258 1.128.306v1.2h1.104v-1.248c.592-.12 1.05-.382 1.374-.786zM18.43 3.111C14.467.05 8.458.198 4.693 3.556L4 2.893C8.119-.78 14.669-.955 19.021 2.366V.444H20V4h-3.915v-.889h2.346zM5.57 20.89c3.964 3.061 9.973 2.913 13.738-.445l.693.663c-4.119 3.673-10.669 3.848-15.021.527v1.922H4V20h3.915v.889H5.569z" fill="#000" fill-rule="evenodd"/></svg>