<svg xmlns="http://www.w3.org/2000/svg" width="40" height="40" viewBox="0 0 40 40">
    <g fill="#BCC5E2" fill-rule="evenodd">
        <path fill-rule="nonzero" d="M28.72 25.554c3.702-6.926 5.175-13.059 3.736-17.03C30.9 4.229 26.078 2 20.5 2 14.922 2 10.1 4.228 8.544 8.525c-1.44 3.97.034 10.103 3.736 17.029 2.473 4.627 5.85 9.297 8.22 11.736 2.37-2.439 5.747-7.109 8.22-11.736zM20.5 40C16.072 36.527 2.916 18.183 6.663 7.843 8.883 1.721 15.74 0 20.5 0s11.618 1.72 13.837 7.843C38.084 18.183 24.927 36.527 20.5 40z"/>
        <path d="M13.944 14.097a.5.5 0 1 0-.98.204l3.42 16.392.03.096 3.627 8.409a.5.5 0 0 0 .918-.396l-3.606-8.362-3.41-16.343z"/>
        <path d="M15.34 32.832l1.887-1.887a.5.5 0 0 0-.707-.707l-1.888 1.887a.5.5 0 0 0 .708.707zM24.339 30.139l-3.626-1.703a.5.5 0 0 0-.426.905l3.627 1.703a.5.5 0 0 0 .425-.905zM11.42 19.733l2.487-5.323a.5.5 0 1 0-.906-.423l-2.486 5.323a.5.5 0 1 0 .906.423z"/>
        <path d="M10.617 19.878l9.533 9.367a.5.5 0 0 0 .7-.713l-9.532-9.367a.5.5 0 0 0-.7.713z"/>
        <path d="M17.086 31.044l3.627-1.703a.5.5 0 0 0-.426-.905l-3.626 1.703a.5.5 0 1 0 .425.905zM15.241 8.844a.5.5 0 1 0-.05-.999l-4.146.213a.5.5 0 0 0-.434.694l2.383 5.641a.5.5 0 0 0 .92-.389L11.81 9.02l3.432-.176z"/>
        <path d="M16.31 4.528l-1.554 3.62a.5.5 0 1 0 .92.394l1.553-3.62a.5.5 0 1 0-.918-.394z"/>
        <path d="M13.933 14.343l1.762-5.854a.5.5 0 1 0-.958-.288l-1.762 5.854a.5.5 0 0 0 .958.288z"/>
        <path d="M16.632 4.157l-4.548-1.448a.5.5 0 0 0-.645.397l-.842 5.248-3.994 5.215a.5.5 0 0 0-.012.591l3.888 5.536.544 7.199a.5.5 0 0 0 .213.372l5.351 3.734a.5.5 0 0 0 .573-.82l-5.157-3.598-.537-7.1a.5.5 0 0 0-.09-.25L7.62 13.887l3.848-5.024a.5.5 0 0 0 .097-.225l.77-4.8 4.283 1.365a.5.5 0 0 0 .505-.123l3.73-3.725a.5.5 0 1 0-.706-.708l-3.515 3.51z"/>
        <path d="M16.522 5.16l3.73 2.128a.5.5 0 1 0 .496-.868l-3.73-2.129a.5.5 0 1 0-.496.869z"/>
        <path d="M15.351 8.826l5.285-1.49a.5.5 0 1 0-.272-.963l-5.284 1.49a.5.5 0 0 0 .271.963z"/>
        <path d="M29.435 8.637a.5.5 0 0 0 .097.225l3.848 5.024-3.757 5.348a.5.5 0 0 0-.09.25l-.536 7.1-5.157 3.597a.5.5 0 0 0 .572.82l5.352-3.734a.5.5 0 0 0 .213-.372l.544-7.199 3.888-5.536a.5.5 0 0 0-.012-.591l-3.994-5.215-.842-5.248a.5.5 0 0 0-.645-.397l-4.548 1.448-3.515-3.51a.5.5 0 1 0-.706.707l3.73 3.725a.5.5 0 0 0 .505.123l4.284-1.364.77 4.799z"/>
        <path d="M26.368 32.125l-1.888-1.887a.5.5 0 0 0-.707.707l1.887 1.887a.5.5 0 1 0 .708-.707zM23.667 30.393l-.03.096.01-.05zM27.085 14.004a.5.5 0 0 0 .921.39l2.383-5.642a.5.5 0 0 0-.434-.694l-4.145-.213a.5.5 0 0 0-.051 1l3.432.175-2.106 4.984z"/>
        <path d="M23.77 4.923l1.555 3.62a.5.5 0 1 0 .919-.395l-1.555-3.62a.5.5 0 0 0-.918.395z"/>
        <path d="M28.025 14.055L26.263 8.2a.5.5 0 1 0-.957.288l1.761 5.854a.5.5 0 1 0 .958-.288zM23.982 4.291l-3.73 2.129a.5.5 0 1 0 .496.868l3.73-2.128a.5.5 0 0 0-.496-.869z"/>
        <path d="M25.92 7.864l-5.284-1.491a.5.5 0 0 0-.272.962l5.285 1.491a.5.5 0 0 0 .271-.962zM29.682 19.165l-9.532 9.367a.5.5 0 0 0 .7.713l9.533-9.367a.5.5 0 0 0-.701-.713z"/>
        <path d="M27.056 14.097a.5.5 0 0 1 .98.204l-3.42 16.392-.03.096-3.627 8.409a.5.5 0 0 1-.918-.396l3.606-8.362 3.41-16.343z"/>
        <path d="M30.485 19.31L28 13.987a.5.5 0 1 0-.906.423l2.486 5.323a.5.5 0 0 0 .906-.423z"/>
    </g>
</svg>
