<svg xmlns="http://www.w3.org/2000/svg" width="40" height="40" viewBox="0 0 40 40">
    <g fill="none" fill-rule="evenodd" stroke="#BCC5E2">
        <path stroke-width="2" d="M20 1.108C13.391 4.37 9 11.722 9 20c0 8.278 4.391 15.63 11 18.892C26.609 35.63 31 28.278 31 20c0-8.278-4.391-15.63-11-18.892z"/>
        <path stroke-linecap="round" stroke-linejoin="round" d="M23.024 8.757l1.2-4.459m3.085 11.074l2.888-1.842m-7.166 17.824l1.192 4.464m-7.249-4.46l-1.199 4.46M12.69 24.743L9.8 26.585m2.886-11.202L9.802 13.53m7.166-4.768l-1.192-4.464m1.191 4.463l3.275-6.896 2.782 6.892m-10.337 6.626l10.328-6.632 4.781-.743-.506 7.374m-.004-.014L31 20.081l-3.74 4.647m.004-.013l.458 7.392-4.769-.818m.009-.005l-2.72 7.28-3.336-7.365m.008.006l-4.785.672.552-7.366m.003.014L9 19.757l3.768-4.591m-.004.013l-.412-7.399 4.764.889m-.147.058l10.322 6.657m-4.249-6.65l4.214 16.012m.061-9.344l-4.386 15.9m4.335-6.514l-10.392 6.39m6.046.166l-10.256-6.898m4.183 6.748L12.79 15.086m-.152 9.342l4.54-15.797"/>
    </g>
</svg>
