<svg width="12" height="13" viewBox="0 0 12 13" xmlns="http://www.w3.org/2000/svg"><title>43890778-A580-4FC6-B832-16D31C8F9DD4</title><path d="M11.994 9.475a.58.58 0 0 1-.178.508l-1.69 1.678a.95.95 0 0 1-.298.216c-.122.06-.243.098-.362.115l-.076.006a1.729 1.729 0 0 1-.165.007c-.161 0-.421-.028-.781-.083-.36-.055-.8-.19-1.321-.407-.521-.216-1.112-.54-1.773-.972-.66-.432-1.363-1.026-2.108-1.78a13.927 13.927 0 0 1-1.474-1.678 11.956 11.956 0 0 1-.94-1.48A7.979 7.979 0 0 1 .294 4.37a6.545 6.545 0 0 1-.241-.953 3.15 3.15 0 0 1-.05-.63l.012-.254c.017-.118.055-.24.114-.362a.953.953 0 0 1 .216-.299l1.69-1.69A.56.56 0 0 1 2.44.005c.11 0 .208.031.292.095a.884.884 0 0 1 .216.235l1.36 2.58a.619.619 0 0 1 .063.445.792.792 0 0 1-.216.407l-.622.623a.212.212 0 0 0-.045.083.314.314 0 0 0-.019.095c.034.178.11.381.229.61.101.204.258.452.47.744.212.292.512.63.902 1.01.38.39.72.693 1.016.91.296.215.544.374.743.476.2.102.352.163.458.184l.158.032a.303.303 0 0 0 .083-.019.212.212 0 0 0 .083-.044l.724-.738a.778.778 0 0 1 .533-.203c.144 0 .258.025.343.076l2.465 1.45c.178.11.283.25.317.419z" fill-rule="nonzero" fill="#D1D1D1"/></svg>