<svg xmlns="http://www.w3.org/2000/svg" width="30" height="30" viewBox="0 0 30 30">
    <path fill="#000" fill-rule="evenodd" d="M11.5 23a.344.344 0 0 1-.243-.095L1.075 12.726a.235.235 0 0 1-.011-.333l3.818-4.286A.341.341 0 0 1 5.136 8h12.728c.1 0 .194.04.254.107l3.818 4.286c.09.1.084.238-.011.333L11.743 22.905A.344.344 0 0 1 11.5 23zm8.078-15h5.286c.1 0 .194.04.254.107l3.818 4.286c.09.1.084.238-.011.333L18.743 22.905A.344.344 0 0 1 18.5 23a.344.344 0 0 1-.243-.095l-2.436-2.436 6.933-6.931a1.38 1.38 0 0 0 .056-1.91L19.578 8z"/>
</svg>
