<svg xmlns="http://www.w3.org/2000/svg" width="40" height="40" viewBox="0 0 40 40">
    <path fill="#FFF" fill-rule="evenodd" d="M15.5 30a.445.445 0 0 1-.313-.12L2.097 16.985a.295.295 0 0 1-.015-.422l4.909-5.428A.442.442 0 0 1 7.318 11h16.364c.128 0 .25.05.327.136l4.91 5.428a.295.295 0 0 1-.016.422L15.813 29.88A.445.445 0 0 1 15.5 30zm10.386-19h6.796c.128 0 .25.05.327.136l4.91 5.428a.295.295 0 0 1-.016.422L24.813 29.88A.445.445 0 0 1 24.5 30a.445.445 0 0 1-.313-.12l-3.132-3.086 8.915-8.78a1.729 1.729 0 0 0 .072-2.418L25.886 11z"/>
</svg>
