<svg width="24" height="24" viewBox="0 0 24 24" xmlns="http://www.w3.org/2000/svg"><title>0135FB6C-6D95-49C9-AF75-677E39DAEB39</title><path d="M9 19a.293.293 0 0 1-.208-.083L.064 10.096a.206.206 0 0 1-.01-.289l3.273-3.714A.291.291 0 0 1 3.545 6h10.91c.085 0 .166.034.218.093l3.272 3.714a.206.206 0 0 1-.01.289l-8.727 8.821A.293.293 0 0 1 9 19zm6.924-13h4.53c.086 0 .167.034.219.093l3.272 3.714a.206.206 0 0 1-.01.289l-8.727 8.821A.293.293 0 0 1 15 19a.293.293 0 0 1-.208-.083l-2.089-2.11 5.944-6.008c.45-.454.475-1.171.048-1.654L15.924 6z" fill="#627FE7" fill-rule="evenodd"/></svg>