<svg xmlns="http://www.w3.org/2000/svg" xmlns:xlink="http://www.w3.org/1999/xlink" width="44" height="44" viewBox="0 0 44 44">
    <defs>
        <circle id="b" cx="20" cy="20" r="20"/>
        <filter id="a" width="200%" height="200%" x="-50%" y="-50%" filterUnits="objectBoundingBox">
            <feOffset dy="2" in="SourceAlpha" result="shadowOffsetOuter1"/>
            <feGaussianBlur in="shadowOffsetOuter1" result="shadowBlurOuter1" stdDeviation="1"/>
            <feColorMatrix in="shadowBlurOuter1" values="0 0 0 0 0 0 0 0 0 0 0 0 0 0 0 0 0 0 0.116253397 0"/>
        </filter>
    </defs>
    <g fill="none" fill-rule="evenodd">
        <g transform="translate(2)">
            <use fill="black" filter="url(#a)" xlink:href="#b"/>
            <use fill="black" xlink:href="#b"/>
        </g>
        <path fill="white" d="M19 27a.293.293 0 0 1-.208-.083l-8.728-8.821a.206.206 0 0 1-.01-.289l3.273-3.714a.291.291 0 0 1 .218-.093h10.91c.085 0 .166.034.218.093l3.272 3.714a.206.206 0 0 1-.01.289l-8.727 8.821A.293.293 0 0 1 19 27zm6.924-13h4.53c.086 0 .167.034.219.093l3.272 3.714a.206.206 0 0 1-.01.289l-8.727 8.821A.293.293 0 0 1 25 27a.293.293 0 0 1-.208-.083l-2.089-2.11 5.944-6.008c.45-.454.475-1.171.048-1.654L25.924 14z"/>
    </g>
</svg>
