<svg xmlns="http://www.w3.org/2000/svg" width="40" height="40" viewBox="0 0 40 40">
    <g fill="white" fill-rule="nonzero">
        <path d="M7.101 2L3.053 7.555v25.201L8.455 38h24.61l4.882-5.187V8.3L32.425 2H7.101zm26.27-2L40 7.562v26.029L33.968 40H7.608L1 33.587V6.917L6.042 0h27.33zM10.71 6.5h18.506l4.114 4.789v18.247L29.672 33.5H11.71l-4.039-4V10.753L10.71 6.5zm18.985-1H10.172l-3.527 4.938V29.91l4.635 4.59h18.85l4.225-4.58V10.925L29.694 5.5z"/>
        <path d="M2.357 7.59l.4-.62C5.47 8.59 7.829 9.488 10.25 9.824c-.42-2.678-1.66-5.112-3.944-7.758l.05-.041a42.173 42.173 0 0 1-.275-.306l.766-.633c4.11 4.61 7.934 6.846 12.105 8.016C23.584 7.916 28.097 5.489 32.571 1l.728.673.06.046c-2.216 2.719-3.56 5.39-4.06 8.277 2.653-.3 5.486-1.024 8.78-2.262l.05.122.075-.06.64.752c-4.635 3.654-7.217 7.169-8.624 10.809 1.4 4.487 4.038 8.907 8.697 13.469l.083.052-.554.813c-3.518-2.222-6.626-3.65-9.55-4.347.361 2.535 1.4 5.013 3.415 7.724.29.314.581.638.876.972l-.072.058c.08.097.16.195.242.292l-.786.61a30.495 30.495 0 0 1-1.05-1.325c-4.194-4.546-7.814-6.918-11.855-8.098-4.172 1.192-7.384 3.702-10.77 8.974l-.311-.185-.082.16-.905-.432c1.693-3.288 2.472-6.142 2.662-8.97-2.27.585-4.538 1.783-7.144 3.757l-.13.149-.032-.026-.099.076-.395-.475-.247-.2.042-.048-.03-.036.182-.14c3.82-4.445 5.651-8.45 6.776-12.617C8.125 15.565 6.19 11.867 2 7.943l.357-.354zm2.095 1.416c2.645 2.874 4.21 5.685 5.203 8.63.12-.54.232-1.086.338-1.636.364-1.888.503-3.584.374-5.18-1.959-.24-3.87-.822-5.915-1.814zm16.417.558c.193.039.387.077.582.113 2.288.423 4.493.582 6.81.415.309-1.977.987-3.857 2.041-5.709-3.096 2.503-6.232 4.15-9.433 5.18zm-9.483 1.351c.112 1.63-.034 3.358-.4 5.262a51.499 51.499 0 0 1-.762 3.39c.247.968.447 1.955.616 2.965.312 1.863.493 3.626.476 5.376 1.974-.32 3.996-.234 6.245.176.718.131 1.42.29 2.109.48a22.392 22.392 0 0 1 1.742-.392 18.06 18.06 0 0 1 6.352-.05c-.083-1.495.035-3.024.304-4.637.237-1.416.587-2.8 1.089-4.161a29.592 29.592 0 0 1-.707-2.89c-.364-1.89-.469-3.662-.31-5.359-2.333.151-4.565-.015-6.88-.444a29.822 29.822 0 0 1-2.32-.521c-.59.145-1.183.27-1.778.38-2.086.38-3.965.54-5.776.425zm-.1-.98c1.778.13 3.621-.024 5.688-.4l.073-.014c-2.478-.882-4.852-2.19-7.246-4.176a13.81 13.81 0 0 1 1.484 4.59zm25-.535c-2.584.846-4.909 1.36-7.124 1.589-.174 1.662-.079 3.402.28 5.268.1.518.214 1.034.343 1.549 1.307-2.838 3.353-5.601 6.5-8.406zM10.304 28.11c.034-1.766-.146-3.54-.46-5.422-.064-.379-.131-.754-.204-1.125-.939 2.888-2.291 5.73-4.456 8.715 1.77-1.067 3.439-1.772 5.12-2.168zm.98.792c-.113 2.109-.534 4.22-1.38 6.484 2.481-3.194 5.01-5.11 7.986-6.246a24.518 24.518 0 0 0-.517-.1c-2.203-.401-4.164-.48-6.089-.138zm18.03 5.186c-.802-1.668-1.266-3.3-1.463-4.962a17.069 17.069 0 0 0-6.375.026c2.665.997 5.188 2.557 7.837 4.936zm-.526-5.767c2.239.494 4.567 1.396 7.072 2.727-2.978-3.39-4.936-6.738-6.173-10.126-.265.896-.468 1.8-.622 2.719-.273 1.633-.386 3.173-.277 4.68z"/>
    </g>
</svg>
