<svg xmlns="http://www.w3.org/2000/svg" width="24" height="24" viewBox="0 0 24 24">
    <g fill="#000" fill-rule="nonzero">
        <path d="M12.5 22c4.13 0 7.5-4.492 7.5-10S16.63 2 12.5 2 5 6.492 5 12s3.37 10 7.5 10zm0 2C7.12 24 3 18.508 3 12S7.12 0 12.5 0 22 5.492 22 12s-4.12 12-9.5 12z"/>
        <path d="M6.86 13.72l.612-1.865-.528-1.834-1.723 1.84L6.86 13.72zm.838.766l.638.376-.356-1.237-.282.861zm.7-5.453l-.57.32.217.753.352-1.073zm1.335-.751l-1.179 3.594 1.078 3.75 2.561 1.51 2.59-1.395 1.163-3.697-1.118-3.725-2.576-1.455-2.519 1.418zm.485-1.478l.966-.544-.665-.375-.301.92zm-1.336.752l.691-2.108-2.143-.35.201 3.161 1.251-.703zm.487 10.903l-.612-2.13-1.206-.71-.265 3.096 2.083-.256zm.982-.33l.763-.411-1.06-.625.297 1.036zm3.235 1.046l-1.415-.834-1.384.745 1.398 2.377 1.401-2.288zm.421-.97l.324-1.028-1.08.582.756.446zm2.895-2.413l-1.265.681-.644 2.048 2.125.32-.216-3.05zm-.162-1.106l-.264-.878-.387 1.229.65-.35zm.874-4.492l-.585 1.858.553 1.842 1.697-1.848-1.665-1.852zm-.841-.775l-.644-.364.37 1.233.274-.87zM14.08 5.835l-.76.427 1.07.605-.31-1.032zm.983-.327l.629 2.094 1.231.696.242-3.076-2.102.286zm-2.81.15l1.396-.785-1.4-2.336-1.4 2.329 1.404.793zM9.899 4.434l1.91-3.181a.51.51 0 0 1 .88 0l1.95 3.25 3.024-.412c.326-.045.61.23.583.565l-.338 4.308 2.456 2.73a.536.536 0 0 1-.004.718l-2.471 2.69.305 4.32a.521.521 0 0 1-.59.56l-3.015-.454-1.975 3.225a.51.51 0 0 1-.88-.008l-1.927-3.276-3.029.373a.522.522 0 0 1-.576-.57l.368-4.304-2.437-2.763a.536.536 0 0 1 .01-.718l2.49-2.658-.275-4.321a.52.52 0 0 1 .597-.556l2.944.482z"/>
    </g>
</svg>
