<svg xmlns="http://www.w3.org/2000/svg" width="24" height="24" viewBox="0 0 24 24">
    <g fill="#BCC5E2" fill-rule="nonzero">
        <path d="M12 21.987c5.5 0 9.987-4.486 9.987-9.987 0-5.5-4.486-9.987-9.987-9.987-5.5 0-9.987 4.486-9.987 9.987 0 5.5 4.486 9.987 9.987 9.987zM12 24C5.388 24 0 18.612 0 12S5.388 0 12 0s12 5.388 12 12-5.388 12-12 12z"/>
        <path d="M4.785 13.89l.906-2.038-.778-1.999-2.549 2.01 2.421 2.027zm.904.566l1.222.532-.681-1.75-.541 1.218zm1.307-5.542l-1.134.47.432 1.11.702-1.58zm1.416-.589L6.833 11.88l1.441 3.702 3.643 1.586 3.691-1.47 1.558-3.654-1.496-3.68-3.667-1.53-3.59 1.492zm.623-1.401l1.596-.664-1.098-.458-.498 1.122zm-1.417.588l.91-2.048-3.228-.39.283 3.284 2.035-.846zm.639 10.934l-.807-2.072-1.972-.859-.373 3.217 3.152-.286zm1.04-.237l1.239-.493-1.722-.749.483 1.242zm4.635.986l-2.033-.885-2.005.797 2.014 2.529 2.024-2.441zm.57-.903l.523-1.226-1.745.694 1.223.532zm3.96-2.593l-2.055.817-.848 1.99 3.205.356-.303-3.163zm-.234-1.044l-.502-1.234-.736 1.727 1.238-.493zm.946-4.63l-.865 2.028.818 2.01 2.508-2.017-2.461-2.021zm-.902-.576l-1.23-.513.707 1.74.523-1.227zm-3.665-3.698l-1.23.511 1.732.724-.502-1.235zm1.046-.23l.829 2.037 2.008.838.339-3.193-3.176.319zm-3.649.169l2.015-.837L12 2.364 9.98 4.845l2.023.845zM8.942 4.45l2.648-3.255a.528.528 0 0 1 .819 0l2.696 3.321 4.264-.428a.528.528 0 0 1 .578.58l-.452 4.255 3.312 2.72a.528.528 0 0 1-.005.818l-3.334 2.681.409 4.266a.528.528 0 0 1-.584.575l-4.252-.472-2.736 3.298a.528.528 0 0 1-.818-.008l-2.665-3.347-4.268.388a.528.528 0 0 1-.572-.586l.492-4.25-3.285-2.751a.528.528 0 0 1 .012-.819l3.36-2.649-.368-4.27a.528.528 0 0 1 .589-.568l4.16.502z"/>
    </g>
</svg>
