<svg xmlns="http://www.w3.org/2000/svg" width="24" height="24" viewBox="0 0 24 24">
    <g fill="#BCC5E2" fill-rule="nonzero">
        <path d="M2 23a1 1 0 0 1-1-1V2a1 1 0 0 1 1-1h20a1 1 0 0 1 1 1v20a1 1 0 0 1-1 1H2zm19-2V3H3v18h18z"/>
        <path d="M7.297 3.603l-3.694 13.1 13.1 3.694 3.694-13.1-13.1-3.694zm-.21-1.098L21.15 6.47a.5.5 0 0 1 .346.617L17.53 21.15a.5.5 0 0 1-.617.346L2.85 17.53a.5.5 0 0 1-.346-.617L6.47 2.85a.5.5 0 0 1 .617-.346z"/>
        <path d="M3.515 6.784l4.223 14.532 12.747-4.1-4.223-14.532-12.747 4.1zm-.769-.803l13.7-4.407a.5.5 0 0 1 .633.337l4.502 15.492a.5.5 0 0 1-.327.616l-13.7 4.407a.5.5 0 0 1-.633-.337L2.42 6.597a.5.5 0 0 1 .327-.616z"/>
    </g>
</svg>
