<svg xmlns="http://www.w3.org/2000/svg" width="24" height="24" viewBox="0 0 24 24">
    <g fill="#000" fill-rule="nonzero">
        <path d="M12 2.043C8.524 3.66 6.079 7.51 6.079 12c0 4.491 2.445 8.34 5.921 9.957 3.476-1.617 5.921-5.466 5.921-9.957 0-4.491-2.445-8.34-5.921-9.957zm.889-1.847C17.19 2.197 20 6.833 20 12c0 5.167-2.81 9.803-7.111 11.804a2.111 2.111 0 0 1-1.778 0C6.81 21.803 4 17.167 4 12 4 6.833 6.81 2.197 11.111.196a2.111 2.111 0 0 1 1.778 0z"/>
        <path d="M11.61 1.89l1.469 4.131c.106.242.384.35.62.241a.485.485 0 0 0 .235-.635l-1.47-4.13a.465.465 0 0 0-.62-.242.485.485 0 0 0-.235.635zm.699 5.389l1.465-1.067a.488.488 0 0 0 .11-.67.462.462 0 0 0-.654-.113l-1.465 1.067a.488.488 0 0 0-.11.67c.15.216.442.267.654.113zm3.652-1.764l-.85 3.93a.476.476 0 0 0 .44.507.473.473 0 0 0 .496-.45l.85-3.93a.476.476 0 0 0-.44-.508.473.473 0 0 0-.496.45zm-2.38.78l2.497-.778a.48.48 0 0 0 .383-.554.47.47 0 0 0-.542-.392l-2.496.776a.48.48 0 0 0-.383.555.47.47 0 0 0 .542.392zm4.501 5.473l-2.886 2.555a.488.488 0 0 0 .078.674.462.462 0 0 0 .659-.08l2.886-2.555a.488.488 0 0 0-.078-.674.462.462 0 0 0-.659.08zm-2.876-2.01l2.873 2.6c.158.21.453.25.658.088a.488.488 0 0 0 .085-.674l-2.873-2.6a.462.462 0 0 0-.658-.087.488.488 0 0 0-.085.673zm1.085 9.114L13.55 17.76a.47.47 0 0 0-.54.395.48.48 0 0 0 .386.553l2.742 1.113a.47.47 0 0 0 .54-.395.48.48 0 0 0-.386-.553zm-1.193-4.23l.866 4.372a.473.473 0 0 0 .497.45.476.476 0 0 0 .44-.508l-.866-4.373a.473.473 0 0 0-.497-.45.476.476 0 0 0-.44.509zm-2.05 3.392l-1.438 4.442a.485.485 0 0 0 .236.635c.236.108.514 0 .62-.242l1.438-4.442a.485.485 0 0 0-.236-.635.465.465 0 0 0-.62.242zm-1.284-10.76l3.543 2.59c.21.155.503.105.654-.111a.488.488 0 0 0-.11-.67l-3.542-2.59a.462.462 0 0 0-.654.112.488.488 0 0 0 .11.67zm1.295-1.351l2.047 8.818c.06.258.313.418.565.356a.481.481 0 0 0 .348-.578L13.97 5.7a.469.469 0 0 0-.564-.356.481.481 0 0 0-.348.579zm2.078 3.445l-2.13 8.757a.481.481 0 0 0 .341.582.468.468 0 0 0 .569-.35l2.13-8.757a.481.481 0 0 0-.341-.582.468.468 0 0 0-.569.35zm.166 4.887l-3.53 2.462a.488.488 0 0 0-.124.667c.146.22.438.276.652.127l3.53-2.461a.488.488 0 0 0 .124-.668.462.462 0 0 0-.652-.127zm-1.567 3.623l-1.419-1.082a.462.462 0 0 0-.656.099.488.488 0 0 0 .096.672l1.419 1.081a.462.462 0 0 0 .656-.098.488.488 0 0 0-.096-.672zM11.609 1.496l-1.47 4.13a.485.485 0 0 0 .236.636.465.465 0 0 0 .62-.24l1.47-4.132a.485.485 0 0 0-.236-.635.465.465 0 0 0-.62.241zm.7 5l-1.466-1.067a.462.462 0 0 0-.654.113c-.15.217-.1.517.11.67l1.466 1.067a.462.462 0 0 0 .654-.113.488.488 0 0 0-.11-.67zM7.183 5.78l.845 3.739a.472.472 0 0 0 .513.43.477.477 0 0 0 .42-.525l-.844-3.739a.472.472 0 0 0-.513-.43.477.477 0 0 0-.42.525zm3.465-.434l-2.44-.752a.47.47 0 0 0-.539.395.48.48 0 0 0 .386.552l2.44.753a.47.47 0 0 0 .54-.396.48.48 0 0 0-.387-.552zm-5.542 7.018l3.04 2.559c.164.205.46.236.66.068.2-.168.23-.47.066-.676l-3.04-2.559a.462.462 0 0 0-.66-.068c-.2.168-.23.47-.066.676zm3.024-3.2l-3.027 2.596a.488.488 0 0 0 .073.675.462.462 0 0 0 .66-.075l3.027-2.596a.488.488 0 0 0-.074-.675.462.462 0 0 0-.659.075zM7.9 19.82l2.785-1.113a.48.48 0 0 0 .379-.558.47.47 0 0 0-.545-.388l-2.785 1.113a.48.48 0 0 0-.379.558.47.47 0 0 0 .545.388zm.139-5.23l-1.012 4.373a.476.476 0 0 0 .445.503.473.473 0 0 0 .492-.457l1.012-4.372a.476.476 0 0 0-.446-.503.473.473 0 0 0-.491.456zm2.13 3.838l1.44 4.442c.107.242.384.35.62.242a.485.485 0 0 0 .237-.635l-1.44-4.442a.465.465 0 0 0-.62-.242.485.485 0 0 0-.236.635zm1.595-11.934l-3.542 2.59a.488.488 0 0 0-.11.67c.151.216.444.266.655.112l3.542-2.59a.488.488 0 0 0 .11-.67.462.462 0 0 0-.655-.112zM10.102 5.7L8.055 14.52a.481.481 0 0 0 .348.578.469.469 0 0 0 .565-.356l2.047-8.818a.481.481 0 0 0-.348-.579.469.469 0 0 0-.565.356zM8.026 9.6l2.131 8.757a.468.468 0 0 0 .569.35.481.481 0 0 0 .341-.582l-2.13-8.757a.468.468 0 0 0-.569-.35.481.481 0 0 0-.342.582zm.216 5.45l3.531 2.46c.214.15.506.093.652-.126a.488.488 0 0 0-.124-.667l-3.53-2.462a.462.462 0 0 0-.652.127.488.488 0 0 0 .123.668zm2.656 3.598l1.419-1.081a.488.488 0 0 0 .096-.672.462.462 0 0 0-.656-.099l-1.42 1.082a.488.488 0 0 0-.095.672.462.462 0 0 0 .656.098z"/>
    </g>
</svg>
