<svg xmlns="http://www.w3.org/2000/svg" width="82" height="82" viewBox="0 0 82 82">
    <g fill="none" fill-rule="evenodd">
        <path d="M0 0h82v81.708H0z"/>
        <path fill="#627FE7" fill-rule="nonzero" d="M72 26.258L59.797 11.016C59.078 10.23 58.623 10 57.763 10H26.237c-.847 0-1.303.23-2.034 1.016L12 26.258c.12.328 0 .679 0 1.016v43.694c0 1.304.723 2.032 2.034 2.032h55.932c1.31 0 2.033-.728 2.034-2.032V27.274c.012-.337-.108-.688 0-1.016zM68 26H43V13h15l10 13zM26 13h15v13H16l10-13zM15 29h54v41H15V29zm35.832 13.545L38.363 55.014l-5.18-5.18a1.863 1.863 0 0 0-2.636 0 1.863 1.863 0 0 0 0 2.636l6.498 6.499c.357.356.837.542 1.318.542.48 0 .946-.186 1.318-.542l13.772-13.772a1.863 1.863 0 0 0 0-2.637 1.83 1.83 0 0 0-2.62-.015z"/>
    </g>
</svg>
