<svg xmlns="http://www.w3.org/2000/svg" width="40" height="40" viewBox="0 0 40 40">
    <g fill="#FFF" fill-rule="evenodd" transform="translate(4 7)">
        <path d="M11.288 5.951c-.159-.525.15-.95.71-.95l19.003.03c.552 0 .867.429.706.95l-2.782 9.006c-.162.524-.738.948-1.3.948H15.322c-.556 0-1.136-.428-1.295-.95L11.288 5.95z"/>
        <path fill-rule="nonzero" d="M7.314.942C7.141.422 6.562 0 5.997 0H1.003A.999.999 0 0 0 0 1c0 .552.444 1 1 1h4l6.406 17.193c.192.517.789.936 1.346.936h16.566a.84.84 0 0 0 .851-.99l-.022-.15C30.066 18.444 29.545 18 29 18H13L7.314.942z"/>
        <ellipse cx="26.51" cy="23.5" rx="2.51" ry="2.5"/>
        <ellipse cx="16.51" cy="23.5" rx="2.51" ry="2.5"/>
    </g>
</svg>
