<svg width="16" height="16" viewBox="0 0 16 16" xmlns="http://www.w3.org/2000/svg"><title>DB6C7783-F9F4-4ED4-8E3B-28305C7244E1</title><g fill="#7AD06D" fill-rule="evenodd"><path d="M7.609.01C3.349.21-.013 3.73 0 7.96a7.849 7.849 0 0 0 .87 3.58l-.849 4.089a.31.31 0 0 0 .377.362l4.04-.949a8.015 8.015 0 0 0 3.438.828c4.354.066 7.984-3.364 8.12-7.681.145-4.628-3.705-8.4-8.387-8.18zm4.82 12.319A6.249 6.249 0 0 1 8 14.149a6.24 6.24 0 0 1-2.788-.648l-.563-.278-2.476.582.521-2.51-.277-.539a6.104 6.104 0 0 1-.681-2.82c0-1.66.652-3.22 1.835-4.394A6.301 6.301 0 0 1 8 1.722c1.672 0 3.245.646 4.428 1.82a6.148 6.148 0 0 1 1.835 4.393 6.2 6.2 0 0 1-1.835 4.394z"/><path d="M11.649 9.05l-1.302-.401a.462.462 0 0 0-.48.136l-.319.348a.45.45 0 0 1-.516.117c-.615-.268-1.911-1.506-2.242-2.126a.542.542 0 0 1 .038-.565l.278-.386a.554.554 0 0 0 .06-.53L6.618 4.31c-.131-.32-.51-.412-.758-.187-.364.33-.795.833-.847 1.389-.093.98.299 2.217 1.778 3.701 1.709 1.715 3.078 1.942 3.969 1.71.505-.132.909-.66 1.164-1.091.174-.295.036-.686-.275-.782z"/></g></svg>