<svg width="12" height="9" viewBox="0 0 12 9" xmlns="http://www.w3.org/2000/svg"><title>9DDE82F4-4597-46F1-AEE0-89052EBE083C</title><path d="M6 8.5a.664.664 0 0 0 .468-.19l4.846-4.747a.608.608 0 0 0 .025-.85l-1.818-2A.662.662 0 0 0 9.031.5H2.97a.662.662 0 0 0-.492.215L.66 2.714a.608.608 0 0 0 .026.849l4.848 4.75A.662.662 0 0 0 6 8.5zm.236-.9l-.003-.003a.381.381 0 0 1 .003.003zm-.47-.002a.358.358 0 0 1 .003-.003l-.003.003zm-4.38-4.75a.392.392 0 0 1 .015.538l1.816-1.998a.335.335 0 0 1-.247.112h6.06a.336.336 0 0 1-.248-.113l1.817 1.998a.392.392 0 0 1 .015-.537L5.77 7.595A.332.332 0 0 1 6 7.5c.082 0 .165.031.233.097L1.386 2.85z" fill="#FFF" fill-rule="nonzero"/></svg>